<svg width="504" height="287" viewBox="0 0 504 287" fill="none" xmlns="http://www.w3.org/2000/svg">
<g clip-path="url(#clip0_122_22)">
<path d="M29.3968 164.681L33.3316 169.269L30.0653 171.365L25.8267 166.412C23.6846 167.126 21.2386 167.537 18.4737 167.537C6.38071 167.537 0 159.728 0 149.063C0 138.398 6.38071 130.604 18.4737 130.604C30.5666 130.604 36.9929 138.413 36.9929 149.063C36.9929 155.854 34.3951 161.46 29.3968 164.681ZM22.8642 162.949L19.7954 159.333L23.0161 157.191L26.4799 161.277C30.202 158.725 32.0858 154.289 32.0858 149.078C32.0858 140.92 27.3915 134.585 18.4585 134.585C9.58625 134.585 4.89188 140.905 4.89188 149.078C4.89188 157.252 9.58625 163.571 18.4585 163.571C20.0992 163.556 21.5273 163.359 22.8642 162.949Z" fill="#1D1D1B"/>
<path d="M67.2101 157.632H47.5211L43.6927 166.914H38.8008L53.7954 131.197H61.0877L76.0824 166.914H71.0386L67.2101 157.632ZM65.6757 153.864L57.3656 133.613L49.0555 153.864H65.6757Z" fill="#1D1D1B"/>
<path d="M95.9077 152.33H86.7317V166.914H81.8398V131.197H100.253C107.089 131.197 112.65 134.464 112.65 141.862C112.65 148.851 107.804 151.965 101.377 152.269L114.23 166.914H108.107L95.9077 152.33ZM86.7165 148.562H99.8273C104.476 148.562 107.728 146.313 107.728 141.877C107.728 137.441 104.461 135.147 99.8273 135.147H86.7165V148.562Z" fill="#1D1D1B"/>
<path d="M132.658 163.754C137.96 163.754 143.065 162.22 143.065 157.89C143.065 155.14 141.074 153.408 136.122 152.026L126.885 149.58C120.109 147.742 117.952 144.278 117.952 140.237C117.952 133.446 124.272 130.59 131.625 130.59C140.087 130.59 146.057 134.312 146.68 141.042L142.092 141.3C141.728 137.274 137.96 134.357 131.534 134.357C126.323 134.357 122.813 136.347 122.813 139.918C122.813 142.515 124.758 144.46 129.24 145.691L138.264 148.091C144.69 149.777 147.956 152.527 147.956 157.525C147.956 164.362 141.834 167.522 132.658 167.522C122.403 167.522 116.949 163.389 116.493 155.991L121.081 155.778C121.325 160.655 125.153 163.754 132.658 163.754Z" fill="#1D1D1B"/>
<path d="M186.909 131.213V166.929H182.017V150.765H159.624V166.929H154.732V131.213H159.624V146.724H182.017V131.213H186.909Z" fill="#1D1D1B"/>
<path d="M196.161 131.213H201.053V166.929H196.161V131.213Z" fill="#1D1D1B"/>
<path d="M35.3069 208.617C35.3069 219.631 28.835 226.468 17.1978 226.468H2.20312V190.751H17.1978C28.835 190.766 35.3069 197.602 35.3069 208.617ZM30.415 208.617C30.415 200.307 25.7206 194.792 16.6965 194.792H7.11016V222.442H16.6965C25.7206 222.442 30.415 216.927 30.415 208.617Z" fill="#1D1D1B"/>
<path d="M65.5236 217.185H45.8346L42.0061 226.468H37.1143L52.1089 190.751H59.4012L74.3958 226.468H69.352L65.5236 217.185ZM64.0044 213.417L55.6943 193.166L47.3842 213.417H64.0044Z" fill="#1D1D1B"/>
<path d="M106.102 190.766L91.8214 226.483H84.681L70.5068 190.766H75.7632L88.3575 223.778L101.013 190.766H106.102Z" fill="#1D1D1B"/>
<path d="M137.292 222.442V226.468H111.981V190.751H116.873V222.426H137.292V222.442Z" fill="#1D1D1B"/>
<path d="M168.588 217.185H148.899L145.07 226.468H140.178L155.173 190.751H162.465L177.46 226.468H172.416L168.588 217.185ZM167.053 213.417L158.743 193.166L150.433 213.417H167.053Z" fill="#1D1D1B"/>
<path d="M205.839 194.792H192.621V226.467H187.73V194.792H174.512V190.766H205.839V194.792Z" fill="#1D1D1B"/>
<path d="M2.20312 272.135V250.304H7.09501V271.679C7.09501 278.971 10.8171 282.602 18.4132 282.602C25.9637 282.602 29.7314 278.987 29.7314 271.679V250.304H34.6232V272.135C34.6232 281.569 29.3212 286.628 18.398 286.628C7.45961 286.628 2.20312 281.584 2.20312 272.135Z" fill="#1D1D1B"/>
<path d="M76.7052 250.304V286.021H68.3951L48.5997 253.069V286.021H43.9053V250.304H52.1698L71.9652 283.256V250.304H76.7052Z" fill="#1D1D1B"/>
<path d="M85.957 250.304H90.8488V286.021H85.957V250.304Z" fill="#1D1D1B"/>
<path d="M132.233 250.304L117.952 286.021H110.812L96.6377 250.304H101.894L114.488 283.316L127.143 250.304H132.233Z" fill="#1D1D1B"/>
<path d="M166.537 282.147V286.021H138.127V250.304H165.671V254.178H143.019V266.012H160.976V269.689H143.019V282.131H166.537V282.147Z" fill="#1D1D1B"/>
<path d="M187.578 271.436H178.402V286.021H173.51V250.304H191.923C198.759 250.304 204.319 253.57 204.319 260.969C204.319 267.957 199.473 271.071 193.047 271.375L205.899 286.021H199.777L187.578 271.436ZM178.386 267.653H191.497C196.146 267.653 199.397 265.405 199.397 260.969C199.397 256.533 196.131 254.239 191.497 254.239H178.386V267.653Z" fill="#1D1D1B"/>
<path d="M224.328 282.86C229.63 282.86 234.734 281.326 234.734 276.996C234.734 274.247 232.744 272.499 227.791 271.132L218.555 268.686C211.779 266.848 209.622 263.384 209.622 259.358C209.622 252.567 215.942 249.711 223.295 249.711C231.757 249.711 237.727 253.433 238.35 260.163L233.762 260.422C233.397 256.396 229.63 253.479 223.203 253.479C217.992 253.479 214.483 255.469 214.483 259.039C214.483 261.637 216.428 263.582 220.909 264.812L229.933 267.213C236.36 268.899 239.626 271.649 239.626 276.647C239.626 283.483 233.504 286.643 224.328 286.643C214.073 286.643 208.619 282.511 208.163 275.112L212.751 274.915C212.994 279.746 216.823 282.86 224.328 282.86Z" fill="#1D1D1B"/>
<path d="M246.386 250.304H251.278V286.021H246.386V250.304Z" fill="#1D1D1B"/>
<path d="M288.575 254.345H275.358V286.02H270.466V254.345H257.249V250.319H288.575V254.345Z" fill="#1D1D1B"/>
<path d="M323.031 282.147V286.021H294.622V250.304H322.165V254.178H299.513V266.012H317.471V269.689H299.513V282.131H323.031V282.147Z" fill="#1D1D1B"/>
<path d="M358.049 254.345H344.832V286.02H339.94V254.345H326.723V250.319H358.049V254.345Z" fill="#1D1D1B"/>
<path d="M364.08 250.304H368.972V286.021H364.08V250.304Z" fill="#1D1D1B"/>
<path d="M504 0.742188L404.841 77.2955V77.3411L363.214 109.457C363.214 109.457 376.842 38.1301 68.3643 71.5681C68.5922 71.5529 68.9568 71.5073 69.5493 71.401L504 0.742188Z" fill="url(#paint0_linear_122_22)"/>
<path opacity="0.15" d="M404.856 77.2955V77.3411L363.229 109.457C363.229 109.457 376.857 38.1302 68.3799 71.5681C68.6078 71.5529 68.9724 71.5074 69.5649 71.401C92.9608 68.241 511.474 -6.47401 404.856 77.2955Z" fill="#1D1D1B"/>
<path opacity="0.3" d="M404.856 77.2955V77.3411L363.229 109.457C363.229 109.457 376.857 38.1301 68.3799 71.568C68.6078 71.5529 68.9724 71.5073 69.5649 71.4009C92.9608 68.241 417.131 24.8673 404.856 77.2955Z" fill="#1D1D1B"/>
</g>
<defs>
<linearGradient id="paint0_linear_122_22" x1="76.3777" y1="9.2692" x2="496.025" y2="63.1265" gradientUnits="userSpaceOnUse">
<stop stop-color="#662483"/>
<stop offset="0.2929" stop-color="#662483"/>
<stop offset="0.5493" stop-color="#662483"/>
<stop offset="0.7605" stop-color="#951B81"/>
<stop offset="0.9997" stop-color="#F9CF33"/>
</linearGradient>
<clipPath id="clip0_122_22">
<rect width="504" height="287" fill="white"/>
</clipPath>
</defs>
</svg>
